<?xml version="1.0" standalone="no"?>
<!DOCTYPE svg PUBLIC "-//W3C//DTD SVG 20010904//EN"
 "http://www.w3.org/TR/2001/REC-SVG-20010904/DTD/svg10.dtd">
<svg version="1.0" xmlns="http://www.w3.org/2000/svg"
 width="512.000000pt" height="512.000000pt" viewBox="0 0 512.000000 512.000000"
 preserveAspectRatio="xMidYMid meet">

<g transform="translate(0.000000,512.000000) scale(0.100000,-0.100000)"
fill="#FFFF00" stroke="none">
<path d="M2374 4936 c-58 -27 -106 -80 -123 -135 -6 -21 -11 -91 -11 -155 0
-64 -2 -116 -4 -116 -26 0 -183 -37 -261 -61 -528 -164 -956 -605 -1101 -1136
-59 -216 -57 -176 -61 -1119 l-4 -872 -92 -4 c-104 -5 -156 -25 -202 -80 -40
-48 -55 -89 -55 -156 0 -108 74 -198 180 -221 36 -8 584 -11 1839 -11 2009 0
1858 -6 1937 74 98 98 91 247 -16 339 -49 41 -103 57 -199 57 l-71 0 0 570 c0
314 -2 570 -4 570 -2 0 -25 -9 -51 -20 -118 -51 -257 -46 -380 15 -158 76
-247 213 -261 400 l-7 85 -60 0 c-259 0 -467 207 -467 465 0 259 213 465 481
465 l49 0 0 43 c0 62 19 155 42 210 24 56 33 43 -97 131 -174 118 -335 186
-547 232 l-128 28 0 126 c0 146 -13 185 -79 241 -72 63 -161 75 -247 35z"/>
<path d="M3821 4177 c-50 -19 -111 -75 -132 -121 -16 -35 -19 -67 -19 -218 l0
-176 -182 -4 c-163 -3 -187 -6 -223 -25 -91 -48 -129 -109 -130 -208 0 -59 4
-78 28 -117 57 -98 114 -118 338 -118 l169 0 0 -182 0 -183 30 -52 c78 -136
269 -154 371 -34 51 59 59 96 59 284 l0 165 183 4 c200 3 228 11 289 75 86 90
76 253 -20 333 -59 49 -115 60 -293 60 l-158 0 -3 183 -3 184 -30 49 c-57 91
-179 137 -274 101z"/>
<path d="M1721 603 c131 -218 298 -347 536 -415 103 -30 312 -32 418 -4 227
59 425 209 540 409 l27 47 -772 0 -772 0 23 -37z"/>
</g>
</svg>
