<svg id="visual" viewBox="0 0 900 600" width="900" height="600" xmlns="http://www.w3.org/2000/svg" xmlns:xlink="http://www.w3.org/1999/xlink" version="1.1"><g stroke-width="1" stroke-linejoin="bevel"><path d="M425 317L491 304L467 231Z" fill="#d8d8d7" stroke="#d8d8d7"></path><path d="M467 231L398 220L425 317Z" fill="#ebebeb" stroke="#ebebeb"></path><path d="M491 304L564 213L467 231Z" fill="#4b4946" stroke="#4b4946"></path><path d="M467 231L381 139L398 220Z" fill="#ebebeb" stroke="#ebebeb"></path><path d="M425 317L492 411L491 304Z" fill="#7d7b79" stroke="#7d7b79"></path><path d="M491 304L614 294L564 213Z" fill="#7d7b79" stroke="#7d7b79"></path><path d="M299 268L372 399L425 317Z" fill="#ffffff" stroke="#ffffff"></path><path d="M425 317L372 399L492 411Z" fill="#b2b2b0" stroke="#b2b2b0"></path><path d="M381 139L312 218L398 220Z" fill="#a09f9d" stroke="#a09f9d"></path><path d="M398 220L299 268L425 317Z" fill="#6c6a67" stroke="#6c6a67"></path><path d="M312 218L299 268L398 220Z" fill="#c5c4c3" stroke="#c5c4c3"></path><path d="M523 95L381 139L467 231Z" fill="#ffffff" stroke="#ffffff"></path><path d="M492 411L584 370L491 304Z" fill="#8e8d8b" stroke="#8e8d8b"></path><path d="M584 370L614 294L491 304Z" fill="#ebebeb" stroke="#ebebeb"></path><path d="M598 107L523 95L564 213Z" fill="#d8d8d7" stroke="#d8d8d7"></path><path d="M564 213L523 95L467 231Z" fill="#7d7b79" stroke="#7d7b79"></path><path d="M299 268L282 381L372 399Z" fill="#d8d8d7" stroke="#d8d8d7"></path><path d="M418 0L308 127L381 139Z" fill="#7d7b79" stroke="#7d7b79"></path><path d="M381 139L308 127L312 218Z" fill="#8e8d8b" stroke="#8e8d8b"></path><path d="M312 218L239 172L299 268Z" fill="#6c6a67" stroke="#6c6a67"></path><path d="M299 268L183 331L282 381Z" fill="#a09f9d" stroke="#a09f9d"></path><path d="M372 399L431 489L492 411Z" fill="#a09f9d" stroke="#a09f9d"></path><path d="M492 411L533 513L584 370Z" fill="#8e8d8b" stroke="#8e8d8b"></path><path d="M311 512L431 489L372 399Z" fill="#b2b2b0" stroke="#b2b2b0"></path><path d="M584 370L665 309L614 294Z" fill="#ebebeb" stroke="#ebebeb"></path><path d="M614 294L661 192L564 213Z" fill="#ffffff" stroke="#ffffff"></path><path d="M662 417L665 309L584 370Z" fill="#ffffff" stroke="#ffffff"></path><path d="M661 192L598 107L564 213Z" fill="#5b5956" stroke="#5b5956"></path><path d="M665 309L661 192L614 294Z" fill="#c5c4c3" stroke="#c5c4c3"></path><path d="M308 127L239 172L312 218Z" fill="#d8d8d7" stroke="#d8d8d7"></path><path d="M431 489L533 513L492 411Z" fill="#7d7b79" stroke="#7d7b79"></path><path d="M610 504L662 417L584 370Z" fill="#5b5956" stroke="#5b5956"></path><path d="M239 172L183 331L299 268Z" fill="#5b5956" stroke="#5b5956"></path><path d="M282 381L311 512L372 399Z" fill="#ffffff" stroke="#ffffff"></path><path d="M184 481L311 512L282 381Z" fill="#c5c4c3" stroke="#c5c4c3"></path><path d="M431 489L473 600L533 513Z" fill="#ffffff" stroke="#ffffff"></path><path d="M533 513L610 504L584 370Z" fill="#c5c4c3" stroke="#c5c4c3"></path><path d="M530 0L418 0L523 95Z" fill="#7d7b79" stroke="#7d7b79"></path><path d="M523 95L418 0L381 139Z" fill="#6c6a67" stroke="#6c6a67"></path><path d="M308 127L171 81L239 172Z" fill="#a09f9d" stroke="#a09f9d"></path><path d="M560 0L530 0L523 95Z" fill="#c5c4c3" stroke="#c5c4c3"></path><path d="M560 0L523 95L598 107Z" fill="#a09f9d" stroke="#a09f9d"></path><path d="M768 119L694 113L661 192Z" fill="#b2b2b0" stroke="#b2b2b0"></path><path d="M661 192L694 113L598 107Z" fill="#d8d8d7" stroke="#d8d8d7"></path><path d="M768 119L661 192L831 179Z" fill="#a09f9d" stroke="#a09f9d"></path><path d="M706 0L560 0L598 107Z" fill="#5b5956" stroke="#5b5956"></path><path d="M183 331L173 389L282 381Z" fill="#b2b2b0" stroke="#b2b2b0"></path><path d="M418 0L293 0L308 127Z" fill="#7d7b79" stroke="#7d7b79"></path><path d="M239 172L111 238L183 331Z" fill="#ffffff" stroke="#ffffff"></path><path d="M416 600L473 600L431 489Z" fill="#6c6a67" stroke="#6c6a67"></path><path d="M533 513L575 600L610 504Z" fill="#d8d8d7" stroke="#d8d8d7"></path><path d="M311 512L416 600L431 489Z" fill="#c5c4c3" stroke="#c5c4c3"></path><path d="M173 389L184 481L282 381Z" fill="#c5c4c3" stroke="#c5c4c3"></path><path d="M311 512L296 600L416 600Z" fill="#8e8d8b" stroke="#8e8d8b"></path><path d="M293 0L171 81L308 127Z" fill="#a09f9d" stroke="#a09f9d"></path><path d="M183 331L108 371L173 389Z" fill="#7d7b79" stroke="#7d7b79"></path><path d="M171 81L111 238L239 172Z" fill="#4b4946" stroke="#4b4946"></path><path d="M173 389L108 371L184 481Z" fill="#c5c4c3" stroke="#c5c4c3"></path><path d="M473 600L575 600L533 513Z" fill="#7d7b79" stroke="#7d7b79"></path><path d="M792 505L810 381L662 417Z" fill="#6c6a67" stroke="#6c6a67"></path><path d="M836 309L661 192L665 309Z" fill="#ffffff" stroke="#ffffff"></path><path d="M694 113L706 0L598 107Z" fill="#7d7b79" stroke="#7d7b79"></path><path d="M62 275L108 371L183 331Z" fill="#ebebeb" stroke="#ebebeb"></path><path d="M212 600L296 600L311 512Z" fill="#5b5956" stroke="#5b5956"></path><path d="M737 535L662 417L610 504Z" fill="#7d7b79" stroke="#7d7b79"></path><path d="M662 417L810 381L665 309Z" fill="#8e8d8b" stroke="#8e8d8b"></path><path d="M768 119L706 0L694 113Z" fill="#7d7b79" stroke="#7d7b79"></path><path d="M293 0L189 0L171 81Z" fill="#8e8d8b" stroke="#8e8d8b"></path><path d="M171 81L121 84L111 238Z" fill="#8e8d8b" stroke="#8e8d8b"></path><path d="M121 0L121 84L171 81Z" fill="#d8d8d7" stroke="#d8d8d7"></path><path d="M725 600L737 535L610 504Z" fill="#6c6a67" stroke="#6c6a67"></path><path d="M810 381L836 309L665 309Z" fill="#8e8d8b" stroke="#8e8d8b"></path><path d="M0 168L62 275L111 238Z" fill="#a09f9d" stroke="#a09f9d"></path><path d="M111 238L62 275L183 331Z" fill="#ebebeb" stroke="#ebebeb"></path><path d="M836 309L831 179L661 192Z" fill="#4b4946" stroke="#4b4946"></path><path d="M768 119L783 0L706 0Z" fill="#7d7b79" stroke="#7d7b79"></path><path d="M184 481L212 600L311 512Z" fill="#c5c4c3" stroke="#c5c4c3"></path><path d="M136 600L212 600L184 481Z" fill="#c5c4c3" stroke="#c5c4c3"></path><path d="M107 528L184 481L108 371Z" fill="#6c6a67" stroke="#6c6a67"></path><path d="M737 535L792 505L662 417Z" fill="#d8d8d7" stroke="#d8d8d7"></path><path d="M900 376L900 293L836 309Z" fill="#ffffff" stroke="#ffffff"></path><path d="M575 600L725 600L610 504Z" fill="#4b4946" stroke="#4b4946"></path><path d="M737 535L786 600L792 505Z" fill="#ffffff" stroke="#ffffff"></path><path d="M0 412L107 528L108 371Z" fill="#4b4946" stroke="#4b4946"></path><path d="M189 0L121 0L171 81Z" fill="#7d7b79" stroke="#7d7b79"></path><path d="M0 168L0 308L62 275Z" fill="#7d7b79" stroke="#7d7b79"></path><path d="M900 117L783 0L768 119Z" fill="#d8d8d7" stroke="#d8d8d7"></path><path d="M836 309L900 293L831 179Z" fill="#c5c4c3" stroke="#c5c4c3"></path><path d="M831 179L900 117L768 119Z" fill="#ffffff" stroke="#ffffff"></path><path d="M900 376L836 309L810 381Z" fill="#ebebeb" stroke="#ebebeb"></path><path d="M107 528L136 600L184 481Z" fill="#ffffff" stroke="#ffffff"></path><path d="M62 275L0 308L108 371Z" fill="#b2b2b0" stroke="#b2b2b0"></path><path d="M107 528L0 600L136 600Z" fill="#8e8d8b" stroke="#8e8d8b"></path><path d="M0 168L111 238L121 84Z" fill="#b2b2b0" stroke="#b2b2b0"></path><path d="M900 521L900 376L810 381Z" fill="#ebebeb" stroke="#ebebeb"></path><path d="M900 521L810 381L792 505Z" fill="#d8d8d7" stroke="#d8d8d7"></path><path d="M900 293L900 176L831 179Z" fill="#6c6a67" stroke="#6c6a67"></path><path d="M0 112L0 168L121 84Z" fill="#d8d8d7" stroke="#d8d8d7"></path><path d="M725 600L786 600L737 535Z" fill="#b2b2b0" stroke="#b2b2b0"></path><path d="M0 308L0 412L108 371Z" fill="#c5c4c3" stroke="#c5c4c3"></path><path d="M900 176L900 117L831 179Z" fill="#c5c4c3" stroke="#c5c4c3"></path><path d="M0 0L0 112L121 84Z" fill="#6c6a67" stroke="#6c6a67"></path><path d="M786 600L900 521L792 505Z" fill="#6c6a67" stroke="#6c6a67"></path><path d="M0 412L0 536L107 528Z" fill="#7d7b79" stroke="#7d7b79"></path><path d="M900 117L900 0L783 0Z" fill="#8e8d8b" stroke="#8e8d8b"></path><path d="M121 0L0 0L121 84Z" fill="#a09f9d" stroke="#a09f9d"></path><path d="M786 600L900 600L900 521Z" fill="#5b5956" stroke="#5b5956"></path><path d="M0 536L0 600L107 528Z" fill="#6c6a67" stroke="#6c6a67"></path></g></svg>