<?xml version="1.0" standalone="no"?>
<!DOCTYPE svg PUBLIC "-//W3C//DTD SVG 20010904//EN"
 "http://www.w3.org/TR/2001/REC-SVG-20010904/DTD/svg10.dtd">
<svg version="1.0" xmlns="http://www.w3.org/2000/svg"
 width="512.000000pt" height="512.000000pt" viewBox="0 0 512.000000 512.000000"
 preserveAspectRatio="xMidYMid meet">

<g transform="translate(0.000000,512.000000) scale(0.100000,-0.100000)"
fill="#FFFFFF" stroke="none">
<path d="M1798 4900 c-158 -20 -340 -88 -475 -177 -72 -48 -192 -160 -248
-233 -146 -191 -218 -407 -218 -650 0 -303 113 -565 334 -775 306 -290 768
-372 1150 -204 357 156 594 481 640 874 27 234 -39 492 -179 704 -50 76 -171
201 -252 261 -73 54 -214 128 -295 154 -134 42 -328 62 -457 46z"/>
<path d="M4141 3823 c-18 -9 -45 -34 -60 -56 l-26 -40 -3 -264 -3 -263 -445 0
c-379 0 -450 -2 -482 -16 -79 -33 -132 -110 -132 -194 0 -88 38 -152 115 -193
39 -21 51 -22 493 -25 l452 -3 0 -242 c0 -133 4 -258 10 -276 13 -47 66 -99
112 -112 62 -16 109 3 196 81 157 139 706 656 725 682 31 41 33 115 5 161 -30
49 -782 746 -825 763 -43 18 -90 17 -132 -3z"/>
<path d="M891 2339 c-452 -54 -822 -419 -881 -870 -7 -53 -10 -241 -8 -511 3
-415 4 -427 24 -455 11 -15 36 -38 54 -50 l33 -23 1807 0 1807 0 33 23 c18 12
43 35 54 50 20 28 21 40 24 455 2 270 -1 458 -8 511 -49 375 -324 707 -685
826 -151 50 -112 49 -1180 51 -550 1 -1033 -2 -1074 -7z"/>
</g>
</svg>
