<?xml version="1.0" standalone="no"?>
<!DOCTYPE svg PUBLIC "-//W3C//DTD SVG 20010904//EN"
 "http://www.w3.org/TR/2001/REC-SVG-20010904/DTD/svg10.dtd">
<svg version="1.0" xmlns="http://www.w3.org/2000/svg"
 width="512.000000pt" height="512.000000pt" viewBox="0 0 512.000000 512.000000"
 preserveAspectRatio="xMidYMid meet">

<g transform="translate(0.000000,512.000000) scale(0.100000,-0.100000)"
fill="#000000" stroke="none">
<path d="M0 4660 l0 -460 150 0 150 0 0 310 0 310 315 0 315 0 0 150 0 150
-465 0 -465 0 0 -460z"/>
<path d="M4190 4970 l0 -150 315 0 315 0 0 -310 0 -310 150 0 150 0 0 460 0
460 -465 0 -465 0 0 -150z"/>
<path d="M2365 3904 c-475 -51 -848 -181 -1230 -429 -326 -212 -658 -536 -852
-832 l-54 -83 54 -82 c141 -215 410 -503 627 -672 409 -318 822 -499 1307
-573 137 -21 525 -24 663 -4 486 67 907 247 1318 563 126 98 401 367 496 488
37 47 97 129 133 182 l65 98 -65 97 c-106 158 -190 258 -361 428 -453 451
-963 714 -1551 801 -97 14 -469 26 -550 18z m525 -318 c511 -76 974 -319 1380
-726 114 -115 255 -280 255 -300 0 -20 -141 -185 -255 -300 -415 -415 -880
-656 -1415 -732 -116 -16 -464 -16 -580 0 -420 58 -781 212 -1149 490 -112 85
-392 358 -481 470 l-57 72 57 73 c89 111 369 384 481 469 407 307 769 450
1269 502 75 8 400 -4 495 -18z"/>
<path d="M2417 3450 c-348 -63 -619 -305 -723 -645 -25 -81 -28 -105 -28 -245
0 -140 3 -164 28 -245 93 -306 315 -528 621 -621 81 -25 105 -28 245 -28 140
0 164 3 245 28 306 93 528 315 621 621 25 81 28 105 28 245 0 140 -3 164 -28
245 -93 306 -318 531 -621 620 -71 21 -117 27 -215 30 -69 2 -147 0 -173 -5z
m259 -301 c173 -31 347 -168 423 -330 82 -175 82 -343 0 -518 -55 -118 -162
-225 -280 -280 -175 -82 -343 -82 -518 0 -118 55 -225 162 -280 280 -59 126
-74 242 -50 375 31 173 168 347 331 424 123 58 242 73 374 49z"/>
<path d="M0 460 l0 -460 465 0 465 0 0 150 0 150 -315 0 -315 0 0 310 0 310
-150 0 -150 0 0 -460z"/>
<path d="M4820 610 l0 -310 -315 0 -315 0 0 -150 0 -150 465 0 465 0 0 460 0
460 -150 0 -150 0 0 -310z"/>
</g>
</svg>
