<?xml version="1.0" standalone="no"?>
<!DOCTYPE svg PUBLIC "-//W3C//DTD SVG 20010904//EN"
 "http://www.w3.org/TR/2001/REC-SVG-20010904/DTD/svg10.dtd">
<svg version="1.0" xmlns="http://www.w3.org/2000/svg"
 width="512.000000pt" height="512.000000pt" viewBox="0 0 512.000000 512.000000"
 preserveAspectRatio="xMidYMid meet">

<g transform="translate(0.000000,512.000000) scale(0.100000,-0.100000)"
fill="#000000" stroke="none">
<path d="M2320 5109 c-842 -80 -1595 -576 -2005 -1319 -348 -632 -410 -1404
-167 -2086 259 -725 831 -1297 1556 -1556 550 -196 1163 -195 1721 3 238 85
605 289 669 373 51 68 70 124 70 211 0 65 -4 90 -26 136 -66 143 -219 221
-371 189 -39 -8 -89 -32 -166 -80 -203 -127 -385 -207 -583 -255 -853 -208
-1728 185 -2132 957 -289 551 -289 1205 0 1756 429 818 1390 1208 2262 917
468 -157 868 -509 1097 -966 144 -286 212 -587 202 -894 -8 -265 -72 -406
-211 -471 -116 -54 -279 -11 -334 89 -16 29 -17 91 -22 757 l-5 725 -27 52
c-35 66 -85 116 -151 150 -46 25 -63 28 -147 28 -85 0 -101 -3 -149 -28 -29
-16 -72 -48 -94 -71 l-41 -42 -105 53 c-191 97 -384 143 -601 143 -652 0
-1197 -463 -1305 -1109 -21 -124 -16 -364 9 -479 104 -474 436 -842 893 -991
421 -137 919 -41 1247 242 40 35 62 48 71 41 7 -5 39 -30 71 -57 177 -143 446
-217 685 -189 129 15 272 63 382 128 104 62 246 201 310 305 192 310 244 724
152 1225 -76 409 -249 794 -510 1132 -343 444 -835 769 -1380 912 -268 70
-588 96 -865 69z m402 -1915 c420 -104 624 -597 400 -969 -152 -252 -455 -373
-742 -295 -75 20 -200 91 -262 149 -140 129 -209 289 -209 481 0 190 68 350
202 474 169 157 389 215 611 160z"/>
</g>
</svg>
