<?xml version="1.0" standalone="no"?>
<!DOCTYPE svg PUBLIC "-//W3C//DTD SVG 20010904//EN"
 "http://www.w3.org/TR/2001/REC-SVG-20010904/DTD/svg10.dtd">
<svg version="1.0" xmlns="http://www.w3.org/2000/svg"
 width="512.000000pt" height="512.000000pt" viewBox="0 0 512.000000 512.000000"
 preserveAspectRatio="xMidYMid meet">

<g transform="translate(0.000000,512.000000) scale(0.100000,-0.100000)"
fill="#FFFFFF" stroke="none">
<path d="M2433 5101 c-163 -47 -285 -172 -328 -338 -22 -86 -22 -2070 0 -2156
23 -87 61 -155 124 -218 185 -185 477 -185 662 0 63 63 101 131 124 218 23 87
22 2070 0 2158 -67 256 -330 408 -582 336z"/>
<path d="M1189 3942 c-124 -33 -225 -114 -380 -309 -660 -827 -647 -2013 30
-2824 963 -1154 2754 -1055 3589 197 177 265 297 582 348 914 24 159 25 473 1
630 -66 431 -234 808 -505 1131 -106 126 -179 191 -256 229 -310 153 -677 -77
-676 -425 0 -131 38 -215 161 -356 133 -152 201 -257 259 -403 234 -585 18
-1250 -514 -1585 -455 -285 -1042 -258 -1471 68 -142 107 -294 290 -375 451
-146 288 -173 657 -74 973 58 182 142 325 292 496 50 57 101 124 113 150 89
187 54 398 -90 541 -120 120 -286 165 -452 122z"/>
</g>
</svg>
