<?xml version="1.0" standalone="no"?>
<!DOCTYPE svg PUBLIC "-//W3C//DTD SVG 20010904//EN"
 "http://www.w3.org/TR/2001/REC-SVG-20010904/DTD/svg10.dtd">
<svg version="1.0" xmlns="http://www.w3.org/2000/svg"
 width="512.000000pt" height="512.000000pt" viewBox="0 0 512.000000 512.000000"
 preserveAspectRatio="xMidYMid meet">

<g transform="translate(0.000000,512.000000) scale(0.100000,-0.100000)"
fill="#00FA9A" stroke="none">
<path d="M2495 4786 c-16 -8 -256 -241 -532 -517 -422 -424 -503 -510 -513
-544 -34 -116 79 -229 195 -195 33 10 100 72 397 368 l358 356 2 -1596 c3
-1595 3 -1597 24 -1624 39 -53 71 -69 134 -69 63 0 95 16 134 69 21 27 21 29
24 1624 l2 1596 358 -356 c305 -304 363 -358 400 -369 116 -34 227 77 193 194
-11 36 -80 110 -509 541 -335 335 -510 504 -537 517 -47 22 -89 23 -130 5z"/>
<path d="M564 2711 c-48 -12 -133 -62 -160 -94 -14 -17 -37 -53 -52 -81 l-27
-51 0 -965 0 -965 27 -51 c40 -76 70 -107 140 -145 l63 -34 2005 0 2005 0 51
27 c76 40 107 70 145 140 l34 63 0 965 0 965 -34 63 c-38 70 -69 100 -145 140
l-51 27 -312 0 c-299 0 -313 -1 -339 -21 -53 -39 -69 -71 -69 -134 0 -63 16
-95 69 -134 26 -20 43 -21 297 -24 l269 -3 0 -879 0 -880 -1920 0 -1920 0 0
880 0 879 269 3 c254 3 271 4 297 24 53 39 69 71 69 134 0 63 -16 95 -69 134
-26 20 -42 21 -319 23 -161 1 -306 -2 -323 -6z"/>
</g>
</svg>
