<?xml version="1.0" standalone="no"?>
<!DOCTYPE svg PUBLIC "-//W3C//DTD SVG 20010904//EN"
 "http://www.w3.org/TR/2001/REC-SVG-20010904/DTD/svg10.dtd">
<svg version="1.0" xmlns="http://www.w3.org/2000/svg"
 width="512.000000pt" height="512.000000pt" viewBox="0 0 512.000000 512.000000"
 preserveAspectRatio="xMidYMid meet">

<g transform="translate(0.000000,512.000000) scale(0.100000,-0.100000)"
fill="#000000" stroke="none">
<path d="M2110 4660 l0 -460 -257 0 -258 0 483 -482 482 -483 482 483 483 482
-258 0 -257 0 0 460 0 460 -450 0 -450 0 0 -460z"/>
<path d="M925 3520 c-36 -71 -65 -132 -65 -135 0 -6 861 -437 865 -433 1 2 32
62 68 134 l65 130 -434 217 -434 217 -65 -130z"/>
<path d="M3688 3434 c-236 -118 -428 -216 -428 -219 0 -3 29 -64 65 -135 l65
-130 434 217 434 217 -66 133 c-37 73 -69 133 -72 132 -3 0 -197 -97 -432
-215z"/>
<path d="M2405 2983 c-236 -50 -450 -228 -539 -449 -73 -179 -72 -395 1 -568
94 -225 310 -405 537 -448 67 -13 79 -28 22 -28 -18 0 -66 -9 -107 -19 -389
-100 -674 -382 -779 -771 -21 -78 -23 -112 -28 -392 l-4 -308 1052 0 1052 0
-4 308 c-4 270 -7 316 -25 382 -93 337 -306 593 -603 721 -92 40 -235 79 -286
79 -51 0 -49 17 4 24 128 18 284 101 391 209 138 140 205 289 218 487 27 425
-325 794 -754 789 -43 0 -109 -7 -148 -16z"/>
<path d="M610 2550 l0 -150 450 0 450 0 0 150 0 150 -450 0 -450 0 0 -150z"/>
<path d="M3610 2550 l0 -150 450 0 450 0 0 150 0 150 -450 0 -450 0 0 -150z"/>
<path d="M955 1786 c-84 -21 -147 -57 -211 -121 -137 -136 -170 -334 -87 -512
52 -112 191 -221 303 -239 23 -4 39 -8 38 -10 -2 -2 -39 -10 -83 -19 -158 -33
-282 -102 -395 -221 -149 -156 -210 -318 -210 -554 l0 -110 450 0 450 0 0 263
c0 274 11 385 49 522 11 39 16 73 12 78 -4 4 -34 12 -67 18 -89 17 -93 20 -39
33 28 7 74 25 102 39 48 25 57 35 92 105 22 42 64 113 95 157 49 69 56 86 56
127 0 122 -47 236 -135 324 -112 113 -269 158 -420 120z"/>
<path d="M3955 1786 c-84 -21 -147 -57 -211 -121 -87 -87 -134 -199 -134 -323
0 -41 7 -58 56 -127 31 -44 73 -115 95 -157 35 -70 44 -80 92 -105 28 -14 75
-32 102 -39 54 -13 50 -16 -39 -33 -33 -6 -63 -14 -67 -18 -4 -5 1 -39 12 -78
38 -137 49 -248 49 -522 l0 -263 450 0 450 0 0 110 c0 183 -37 316 -125 450
-110 168 -281 284 -480 325 -44 9 -81 17 -83 19 -1 2 16 6 39 10 110 18 234
112 292 224 95 181 65 384 -78 528 -112 113 -269 158 -420 120z"/>
</g>
</svg>
