<?xml version="1.0" standalone="no"?>
<!DOCTYPE svg PUBLIC "-//W3C//DTD SVG 20010904//EN"
 "http://www.w3.org/TR/2001/REC-SVG-20010904/DTD/svg10.dtd">
<svg version="1.0" xmlns="http://www.w3.org/2000/svg"
 width="900.000000pt" height="900.000000pt" viewBox="0 0 900.000000 900.000000"
 preserveAspectRatio="xMidYMid meet">

<g transform="translate(0.000000,900.000000) scale(0.100000,-0.100000)"
fill="#000000" stroke="none">
<path d="M1150 8945 c-322 -51 -696 -244 -940 -485 -108 -106 -170 -191 -170
-232 0 -29 21 -57 124 -168 189 -202 208 -220 236 -220 45 0 59 9 99 69 88
128 284 284 431 341 281 108 488 44 601 -185 56 -114 72 -201 66 -355 -7 -146
-32 -266 -106 -497 -98 -308 -128 -487 -118 -713 10 -217 45 -345 156 -570 91
-185 68 -182 383 -56 235 94 278 118 278 155 0 10 -21 60 -46 112 -89 181
-113 271 -121 444 -7 173 16 309 97 558 124 386 160 560 161 777 0 160 -16
266 -58 383 -168 468 -587 718 -1073 642z"/>
<path d="M4245 8933 c-70 -2 -294 -21 -350 -28 -328 -44 -540 -91 -835 -187
-186 -61 -222 -77 -278 -132 -68 -65 -95 -125 -100 -228 -4 -81 -2 -92 26
-152 54 -116 160 -191 285 -203 57 -5 76 -1 212 45 263 89 459 135 734 174
213 31 729 33 946 5 840 -110 1577 -473 2165 -1066 866 -872 1236 -2111 994
-3326 -235 -1177 -1051 -2181 -2159 -2655 -835 -357 -1787 -393 -2650 -98
-1172 400 -2069 1372 -2374 2573 -187 736 -136 1592 134 2250 42 102 51 159
35 227 -26 111 -87 190 -184 241 -56 29 -69 32 -151 31 -107 0 -159 -19 -231
-86 -61 -56 -80 -98 -163 -344 -170 -508 -234 -897 -234 -1409 0 -333 20 -539
85 -865 163 -825 576 -1596 1183 -2206 170 -171 276 -265 444 -392 649 -494
1364 -781 2181 -877 190 -22 571 -30 760 -16 787 60 1465 289 2104 708 251
164 438 316 660 533 875 857 1343 2006 1313 3220 -11 416 -68 779 -186 1170
-265 875 -822 1668 -1566 2227 -800 600 -1790 906 -2800 866z"/>
<path d="M3662 6949 c-150 -18 -275 -81 -392 -199 -137 -136 -199 -286 -200
-481 -1 -388 333 -701 720 -676 363 24 640 318 640 680 0 112 -20 197 -72 307
-57 119 -177 239 -298 298 -132 65 -259 87 -398 71z"/>
<path d="M6055 6951 c-275 -33 -510 -240 -580 -511 -22 -83 -22 -253 0 -335 8
-33 34 -98 57 -145 77 -157 241 -292 423 -346 43 -13 94 -18 180 -19 106 0
130 3 209 29 207 68 369 229 442 441 24 69 28 96 28 195 1 64 -5 139 -13 170
-21 88 -94 229 -152 293 -103 116 -270 207 -404 222 -117 12 -131 13 -190 6z"/>
<path d="M2110 5521 c-178 -57 -291 -181 -320 -350 -33 -190 83 -401 269 -490
73 -35 80 -36 186 -36 108 0 113 1 188 38 267 132 335 438 151 688 -102 139
-307 204 -474 150z"/>
<path d="M5110 4244 c-163 -20 -286 -38 -345 -51 -661 -144 -1219 -513 -1562
-1034 -35 -53 -63 -100 -63 -103 0 -4 39 20 88 52 615 410 1496 642 2452 643
474 1 755 -48 1025 -180 44 -22 81 -38 83 -36 6 6 -40 90 -83 150 -56 79 -193
209 -281 267 -293 192 -635 285 -1074 293 -113 2 -221 1 -240 -1z"/>
</g>
</svg>
