<?xml version="1.0" standalone="no"?>
<!DOCTYPE svg PUBLIC "-//W3C//DTD SVG 20010904//EN"
 "http://www.w3.org/TR/2001/REC-SVG-20010904/DTD/svg10.dtd">
<svg version="1.0" xmlns="http://www.w3.org/2000/svg"
 width="512.000000pt" height="512.000000pt" viewBox="0 0 512.000000 512.000000"
 preserveAspectRatio="xMidYMid meet">

<g transform="translate(0.000000,512.000000) scale(0.100000,-0.100000)"
fill="#000000" stroke="none">
<path d="M2390 5109 c-483 -63 -904 -405 -1068 -869 -54 -154 -67 -236 -67
-435 0 -138 5 -200 19 -265 21 -96 67 -232 102 -301 l23 -46 -402 -342 c-334
-284 -407 -351 -429 -393 l-28 -50 0 -1117 c0 -737 4 -1129 10 -1153 14 -50
55 -97 105 -119 38 -18 117 -19 1909 -19 l1870 0 44 21 c29 15 54 37 73 68
l29 45 -2 1156 -3 1155 -22 32 c-13 17 -201 183 -418 368 -217 186 -397 341
-400 345 -3 4 11 41 30 82 45 98 85 236 92 319 5 59 3 69 -16 88 -26 26 -75
27 -100 2 -11 -11 -23 -37 -26 -58 -11 -67 -55 -213 -86 -288 -36 -87 -126
-225 -203 -313 -84 -95 -82 -100 60 -243 67 -67 114 -122 110 -128 -5 -8 -85
-11 -257 -11 l-250 0 -24 -25 c-34 -33 -33 -77 1 -104 25 -20 39 -21 286 -21
195 0 267 3 291 14 47 19 94 77 102 125 11 68 -9 107 -108 208 l-90 92 49 65
c27 36 52 64 55 63 11 -3 769 -652 769 -657 0 -3 -103 -73 -228 -156 -125 -84
-441 -296 -703 -472 l-477 -321 -163 140 c-90 78 -177 148 -194 157 -41 22
-140 21 -183 -1 -26 -14 -231 -183 -338 -278 -20 -19 -24 -16 -279 156 -183
124 -267 175 -287 175 -67 0 -93 -87 -40 -132 16 -12 126 -88 245 -168 119
-80 215 -148 214 -152 -1 -4 -292 -255 -647 -557 l-645 -551 -3 987 c-1 542 0
988 2 990 2 3 126 -77 274 -176 288 -193 308 -202 350 -158 29 31 28 72 -2
100 -13 12 -155 109 -315 216 -160 107 -291 198 -291 202 0 5 448 391 751 646
13 11 24 2 80 -69 58 -74 169 -180 243 -234 l29 -21 -18 -53 c-25 -75 -17
-188 17 -255 112 -218 394 -257 559 -77 28 30 56 75 66 103 l18 49 158 0 c156
0 158 0 184 26 20 20 24 31 19 57 -12 61 -30 67 -205 67 l-156 0 -18 49 c-25
70 -95 144 -173 182 -56 28 -77 33 -142 33 -67 0 -86 -4 -146 -32 l-69 -32
-55 42 c-210 163 -357 389 -424 655 -20 76 -23 113 -22 273 0 170 3 193 28
285 31 114 103 273 167 366 55 82 185 217 269 280 230 173 561 259 845 219
482 -69 865 -413 977 -878 30 -122 36 -138 64 -151 35 -16 48 -14 78 10 34 26
34 65 2 190 -131 512 -557 894 -1086 974 -102 16 -256 18 -360 4z m-225 -2360
c151 -41 194 -232 76 -332 -30 -25 -87 -47 -121 -47 -37 0 -94 24 -127 53
-108 95 -73 274 63 322 48 17 59 18 109 4z m2261 -2496 c-5 -6 -1286 1087
-1286 1096 0 4 98 73 218 153 119 81 408 275 642 432 l425 286 3 -981 c1 -540
0 -984 -2 -986z m-1814 1340 c20 -16 408 -345 862 -733 l826 -705 -864 -3
c-476 -1 -1257 -1 -1737 0 l-872 3 858 733 c472 402 866 732 875 732 9 0 33
-12 52 -27z"/>
<path d="M4220 4931 c-117 -36 -205 -129 -235 -249 -21 -81 -13 -147 26 -228
34 -73 90 -126 168 -163 47 -22 69 -26 141 -26 73 1 93 5 143 30 146 72 225
243 182 391 -32 113 -107 196 -213 237 -44 18 -165 22 -212 8z m179 -155 c71
-37 118 -125 107 -201 -19 -126 -158 -200 -273 -144 -140 68 -145 257 -8 340
37 23 133 25 174 5z"/>
<path d="M725 4475 c-34 -33 -31 -67 6 -110 l32 -36 -32 -32 c-36 -38 -40 -74
-12 -108 27 -34 82 -31 120 5 l30 29 36 -32 c45 -39 68 -39 107 -1 35 36 33
68 -10 112 l-26 28 21 22 c38 42 46 67 32 99 -23 57 -71 64 -124 18 l-35 -31
-35 31 c-43 37 -78 39 -110 6z"/>
<path d="M2175 4403 c-60 -14 -92 -29 -127 -61 -77 -69 -102 -158 -73 -257 15
-52 28 -70 125 -169 l108 -111 -108 -111 c-97 -99 -110 -117 -125 -169 -28
-96 -5 -184 67 -251 69 -66 145 -85 235 -59 52 15 70 29 170 128 l113 111 107
-106 c118 -115 128 -122 198 -138 150 -34 295 85 295 242 0 32 -7 75 -15 95
-9 20 -63 84 -120 143 -58 58 -105 110 -105 116 0 5 45 54 101 109 116 114
139 154 139 240 0 145 -103 248 -245 248 -85 -1 -131 -27 -253 -146 l-102
-101 -108 106 c-59 59 -123 114 -142 121 -41 17 -107 27 -135 20z m67 -153 c6
0 73 -61 148 -135 127 -125 149 -141 190 -135 8 1 76 61 150 134 144 142 168
156 227 131 38 -16 53 -42 53 -91 0 -35 -10 -48 -137 -176 -124 -124 -137
-141 -137 -173 0 -32 13 -49 137 -173 130 -131 137 -141 137 -178 0 -22 -7
-49 -15 -61 -22 -31 -75 -46 -111 -33 -16 6 -87 69 -159 141 -174 171 -155
172 -337 -8 -131 -130 -141 -138 -178 -138 -77 0 -122 82 -82 147 12 18 75 87
142 153 101 100 120 125 120 150 0 26 -20 50 -126 155 -139 139 -159 167 -150
215 9 46 68 91 104 79 8 -2 18 -4 24 -4z"/>
<path d="M662 3883 c-61 -21 -145 -102 -173 -165 -32 -73 -32 -184 0 -249 34
-71 85 -125 149 -156 48 -24 70 -28 137 -28 67 0 89 4 137 28 150 73 216 263
145 409 -34 70 -110 140 -174 162 -58 20 -164 19 -221 -1z m199 -156 c104 -69
96 -223 -15 -276 -54 -27 -91 -26 -146 2 -85 42 -115 160 -58 232 53 68 152
87 219 42z"/>
<path d="M4140 3440 c-35 -35 -26 -79 25 -130 l44 -44 -44 -47 c-50 -53 -58
-91 -27 -128 30 -38 76 -31 125 17 24 23 47 42 52 42 5 0 28 -19 52 -42 47
-46 89 -53 124 -22 34 31 25 79 -26 133 l-44 47 44 44 c51 51 60 95 25 130
-34 34 -75 26 -128 -24 l-47 -44 -47 44 c-53 50 -94 58 -128 24z"/>
</g>
</svg>
