<?xml version="1.0" standalone="no"?>
<!DOCTYPE svg PUBLIC "-//W3C//DTD SVG 20010904//EN"
 "http://www.w3.org/TR/2001/REC-SVG-20010904/DTD/svg10.dtd">
<svg version="1.0" xmlns="http://www.w3.org/2000/svg"
 width="512.000000pt" height="512.000000pt" viewBox="0 0 512.000000 512.000000"
 preserveAspectRatio="xMidYMid meet">

<g transform="translate(0.000000,512.000000) scale(0.100000,-0.100000)"
fill="#000000" stroke="none">
<path d="M2363 4672 c-31 -5 -63 -48 -63 -84 0 -24 15 -46 69 -102 l70 -71
-70 -71 c-58 -60 -69 -77 -69 -105 1 -38 14 -60 48 -78 38 -20 72 -4 144 67
l67 66 75 -72 c83 -81 106 -88 155 -46 24 20 31 34 31 61 0 30 -10 46 -69 107
l-70 71 70 71 c55 57 69 78 69 102 0 36 -35 80 -65 83 -46 4 -60 -4 -126 -68
l-70 -67 -62 62 c-64 63 -96 81 -134 74z"/>
<path d="M750 3681 c-113 -36 -209 -121 -263 -231 l-32 -65 0 -1176 0 -1175
38 -76 c40 -82 116 -162 188 -199 101 -51 23 -49 1879 -49 1886 0 1781 -3
1892 57 67 37 143 121 181 200 l32 68 3 1157 c2 1140 2 1158 -18 1215 -63 181
-225 293 -421 293 l-79 0 0 -78 0 -78 90 -10 c70 -8 100 -17 137 -40 59 -36
108 -107 122 -177 8 -35 10 -319 9 -892 l-3 -840 -1945 0 -1945 0 -3 840 c-1
573 1 857 9 892 14 70 63 141 122 177 37 23 67 32 137 40 l90 10 0 78 0 78
-82 -1 c-51 0 -105 -7 -138 -18z"/>
<path d="M1940 605 c0 -84 -2 -95 -17 -95 -30 0 -136 -56 -181 -95 -56 -49
-94 -106 -122 -183 l-23 -62 -112 0 c-104 0 -113 -2 -133 -23 -22 -23 -29 -68
-16 -102 18 -46 -11 -45 1224 -45 864 0 1167 3 1183 12 50 26 62 86 26 132
-20 25 -23 26 -134 26 l-113 0 -13 38 c-47 146 -144 246 -284 294 l-50 17 -3
90 -3 91 -614 0 -615 0 0 -95z"/>
</g>
</svg>
