<?xml version="1.0" standalone="no"?>
<!DOCTYPE svg PUBLIC "-//W3C//DTD SVG 20010904//EN"
 "http://www.w3.org/TR/2001/REC-SVG-20010904/DTD/svg10.dtd">
<svg version="1.0" xmlns="http://www.w3.org/2000/svg"
 width="512.000000pt" height="512.000000pt" viewBox="0 0 512.000000 512.000000"
 preserveAspectRatio="xMidYMid meet">

<g transform="translate(0.000000,512.000000) scale(0.100000,-0.100000)"
fill="#000000" stroke="none">
<path d="M2460 4829 c-399 -27 -759 -258 -967 -621 -194 -338 -208 -769 -38
-1123 107 -222 251 -381 466 -517 368 -232 863 -241 1244 -21 317 182 531 484
600 845 23 123 21 330 -5 459 -113 552 -584 956 -1145 981 -33 2 -103 0 -155
-3z m237 -421 l23 -21 0 -424 0 -424 -25 -24 c-23 -24 -31 -25 -135 -25 -104
0 -112 1 -135 25 l-25 24 0 422 c0 514 -15 469 159 469 104 0 117 -2 138 -22z
m-2 -1253 c24 -23 25 -30 25 -140 0 -110 -1 -117 -25 -140 -23 -24 -31 -25
-135 -25 -104 0 -112 1 -135 25 -24 23 -25 30 -25 140 0 110 1 117 25 140 23
24 31 25 135 25 104 0 112 -1 135 -25z"/>
</g>
</svg>
