<?xml version="1.0" standalone="no"?>
<!DOCTYPE svg PUBLIC "-//W3C//DTD SVG 20010904//EN"
 "http://www.w3.org/TR/2001/REC-SVG-20010904/DTD/svg10.dtd">
<svg version="1.0" xmlns="http://www.w3.org/2000/svg"
 width="512.000000pt" height="512.000000pt" viewBox="0 0 512.000000 512.000000"
 preserveAspectRatio="xMidYMid meet">

<g transform="translate(0.000000,512.000000) scale(0.100000,-0.100000)"
fill="#000000" stroke="none">
<path d="M2656 4750 c-232 -37 -443 -146 -601 -311 -174 -182 -265 -387 -290
-651 l-7 -68 -63 0 c-92 0 -257 -18 -362 -40 -636 -132 -1151 -640 -1292
-1275 -106 -479 2 -978 295 -1371 351 -469 933 -725 1512 -664 274 29 534 123
762 276 567 379 853 1080 710 1737 -39 181 -55 207 -119 207 -35 0 -75 -44
-68 -75 67 -283 81 -401 67 -586 -29 -378 -175 -696 -444 -964 -227 -227 -486
-366 -789 -424 -498 -96 -1007 60 -1366 420 -604 604 -597 1576 15 2171 97 94
119 112 214 175 152 102 342 183 523 224 104 23 323 42 383 33 41 -6 41 -6 51
-62 29 -149 122 -334 236 -465 118 -137 339 -274 512 -318 175 -44 370 -43
535 2 102 27 261 105 341 166 l67 51 116 -117 c112 -112 116 -118 106 -145
-15 -40 -12 -121 5 -164 20 -47 1021 -1053 1080 -1085 54 -28 144 -28 200 0
118 62 166 193 111 308 -32 67 -570 605 -604 605 -58 0 -102 -50 -86 -97 4
-10 130 -142 280 -293 255 -257 274 -278 274 -311 0 -44 -34 -79 -76 -79 -25
0 -84 55 -434 405 l-405 405 54 54 54 55 29 -25 c29 -24 80 -32 105 -16 13 8
33 55 33 79 0 25 -248 270 -297 294 -48 23 -148 28 -184 8 -20 -10 -32 -1
-138 105 -87 87 -113 119 -106 129 107 143 173 275 210 421 142 565 -216 1137
-790 1262 -86 19 -279 26 -359 14z m299 -155 c312 -55 584 -288 683 -588 57
-172 63 -315 22 -495 -76 -325 -347 -587 -680 -658 -87 -18 -271 -18 -361 1
-444 94 -753 520 -699 965 14 115 40 201 90 300 115 229 324 398 570 460 132
33 243 38 375 15z m1051 -1957 l45 -43 -61 -60 -61 -60 -44 47 c-51 53 -58 89
-24 132 16 20 29 26 60 26 33 0 48 -7 85 -42z"/>
<path d="M2683 4286 c-154 -50 -263 -188 -271 -342 -4 -67 -3 -72 23 -92 35
-28 57 -28 90 1 18 16 27 36 32 72 13 100 57 164 138 201 89 42 192 30 262
-31 57 -49 87 -114 87 -190 -1 -102 -53 -175 -169 -233 -97 -49 -145 -115
-145 -202 0 -100 126 -111 145 -13 9 50 17 58 91 94 251 119 306 451 107 640
-78 74 -147 102 -258 106 -57 2 -106 -2 -132 -11z"/>
<path d="M2750 3240 c-30 -30 -27 -83 6 -109 30 -24 43 -26 78 -10 33 15 50
57 37 92 -19 48 -85 63 -121 27z"/>
<path d="M1070 2508 c-84 -15 -158 -85 -181 -172 -16 -57 -7 -193 15 -236 91
-176 334 -181 420 -8 22 45 26 65 26 145 0 106 -14 150 -63 201 -60 63 -132
86 -217 70z"/>
<path d="M2192 2509 c-150 -29 -230 -199 -176 -378 34 -114 156 -187 271 -161
69 15 130 62 162 125 22 43 26 62 26 145 -1 86 -3 100 -30 148 -52 95 -148
141 -253 121z"/>
<path d="M1301 1444 c-24 -30 -26 -43 -10 -77 20 -45 41 -47 393 -47 322 0
334 1 360 21 33 26 36 79 6 109 -19 19 -33 20 -374 20 l-355 0 -20 -26z"/>
</g>
</svg>
