<?xml version="1.0" standalone="no"?>
<!DOCTYPE svg PUBLIC "-//W3C//DTD SVG 20010904//EN"
 "http://www.w3.org/TR/2001/REC-SVG-20010904/DTD/svg10.dtd">
<svg version="1.0" xmlns="http://www.w3.org/2000/svg"
 width="512.000000pt" height="512.000000pt" viewBox="0 0 512.000000 512.000000"
 preserveAspectRatio="xMidYMid meet">

<g transform="translate(0.000000,512.000000) scale(0.100000,-0.100000)"
fill="#696969" stroke="none">
<path d="M2073 5106 c-133 -33 -247 -126 -311 -254 -36 -74 -37 -79 -41 -205
-3 -123 -2 -130 15 -125 11 3 60 18 109 32 230 68 462 100 730 99 273 0 527
-37 753 -108 l74 -24 -4 128 c-3 124 -4 129 -41 203 -66 134 -184 228 -325
257 -77 16 -890 13 -959 -3z"/>
<path d="M1325 4386 c-165 -42 -288 -175 -317 -345 -31 -180 68 -364 239 -443
54 -25 84 -33 150 -36 46 -3 83 -2 83 0 0 3 -10 40 -22 84 -20 71 -22 111 -27
414 l-6 335 -25 2 c-14 1 -47 -4 -75 -11z"/>
<path d="M3695 4388 c-2 -7 -6 -159 -8 -338 -3 -297 -5 -331 -25 -400 -12 -41
-22 -79 -22 -84 0 -5 40 -6 90 -4 l90 5 0 -191 c0 -136 -4 -196 -12 -204 -8
-8 -45 -12 -100 -12 l-88 0 0 -151 0 -151 123 4 c105 3 130 8 178 30 72 33
134 94 168 167 l26 56 3 440 c2 304 0 458 -8 500 -32 166 -163 299 -328 334
-68 14 -82 14 -87 -1z"/>
<path d="M2385 4350 c-188 -16 -365 -53 -558 -117 l-109 -35 4 -222 c4 -219 4
-222 36 -316 95 -274 303 -472 579 -552 113 -33 333 -33 446 0 172 49 338 160
438 293 77 101 102 148 141 259 32 95 33 96 36 320 l4 225 -99 32 c-293 96
-631 138 -918 113z"/>
<path d="M2890 2839 c-166 -58 -428 -64 -613 -15 -53 14 -99 26 -102 26 -3 0
-5 -36 -5 -79 l0 -80 191 -245 c105 -135 193 -246 197 -246 4 1 98 110 210
244 l202 243 0 87 c0 97 4 94 -80 65z"/>
<path d="M1565 2685 c-217 -40 -432 -165 -567 -329 -142 -172 -212 -358 -225
-601 l-6 -110 80 -13 c155 -24 316 -95 451 -197 l72 -55 0 130 0 130 150 0
150 0 0 -155 0 -155 890 0 890 0 0 155 0 155 150 0 150 0 0 -130 0 -131 65 50
c153 118 315 186 491 209 l59 7 -2 113 c-8 371 -210 686 -544 846 -118 57
-225 85 -355 93 l-101 6 -326 -416 -327 -415 0 -111 0 -111 -150 0 -150 0 0
112 0 111 -310 414 -310 413 -78 -1 c-42 0 -108 -7 -147 -14z"/>
<path d="M539 1335 c-175 -43 -347 -173 -428 -325 -17 -32 -31 -60 -31 -63 0
-3 78 -7 173 -9 167 -3 173 -4 219 -30 81 -48 138 -142 138 -228 0 -56 -31
-132 -73 -177 -69 -75 -105 -87 -294 -91 -90 -2 -163 -7 -163 -10 0 -23 90
-149 143 -202 81 -79 167 -132 272 -167 69 -23 97 -27 205 -27 108 0 136 4
205 27 44 14 107 42 140 62 65 39 169 137 212 198 l26 37 1277 0 1277 0 27
-39 c45 -64 157 -165 226 -203 112 -62 197 -83 335 -82 101 0 132 5 200 27
129 42 230 111 318 217 34 41 97 140 97 153 0 3 -73 7 -162 9 -190 4 -226 16
-295 91 -42 45 -73 121 -73 177 0 86 57 180 138 228 46 26 52 27 220 30 94 2
172 6 172 9 0 3 -15 33 -32 67 -40 74 -161 198 -240 244 -102 60 -189 85 -318
90 -84 3 -134 0 -185 -12 -142 -34 -284 -124 -375 -239 l-45 -57 -1285 0
-1285 0 -53 65 c-90 112 -226 197 -365 230 -77 18 -243 18 -318 0z"/>
</g>
</svg>
