<?xml version="1.0" standalone="no"?>
<!DOCTYPE svg PUBLIC "-//W3C//DTD SVG 20010904//EN"
 "http://www.w3.org/TR/2001/REC-SVG-20010904/DTD/svg10.dtd">
<svg version="1.0" xmlns="http://www.w3.org/2000/svg"
 width="512.000000pt" height="512.000000pt" viewBox="0 0 512.000000 512.000000"
 preserveAspectRatio="xMidYMid meet">

<g transform="translate(0.000000,512.000000) scale(0.100000,-0.100000)"
fill="#FFFFFF" stroke="none">
<path d="M2465 5009 c-363 -25 -684 -200 -905 -495 -39 -51 -81 -96 -93 -100
-12 -4 -52 -20 -88 -36 -112 -50 -105 28 -70 -831 33 -799 33 -795 97 -975
168 -470 491 -814 869 -926 44 -14 97 -27 117 -31 28 -4 39 -12 43 -28 2 -12
9 -49 16 -81 8 -42 20 -68 39 -88 l28 -28 -40 0 c-65 0 -235 39 -336 77 -176
65 -325 161 -485 313 -91 85 -110 96 -160 92 -45 -4 -613 -209 -712 -257 -286
-138 -499 -349 -641 -635 -101 -204 -138 -370 -138 -628 l-1 -184 33 -29 32
-29 2490 0 2490 0 32 29 33 29 -1 184 c0 258 -37 424 -138 628 -142 286 -355
497 -641 635 -84 41 -560 214 -711 259 -36 11 -73 -11 -170 -103 -150 -142
-326 -252 -502 -315 -85 -30 -253 -66 -310 -66 l-40 0 28 28 c19 20 31 46 39
88 7 32 14 69 16 81 4 16 15 24 43 28 20 4 73 17 117 31 378 112 701 456 869
926 64 180 64 176 97 975 29 716 30 743 13 773 -18 29 -53 50 -147 85 -41 15
-58 31 -117 110 -260 345 -655 524 -1095 494z m365 -654 c191 -16 424 -53 563
-88 l88 -22 30 -66 c49 -113 79 -243 86 -369 5 -105 -20 -852 -33 -977 l-5
-53 -62 0 c-118 1 -298 33 -430 76 -46 15 -88 23 -102 20 -72 -18 -107 -105
-64 -160 27 -35 104 -72 182 -87 31 -6 57 -14 57 -16 0 -10 -79 -120 -99 -137
-16 -14 -37 -20 -76 -20 -79 -1 -101 19 -157 150 -25 60 -57 121 -71 137 l-25
27 -152 0 -152 0 -26 -29 c-15 -16 -45 -73 -66 -127 -21 -55 -52 -112 -68
-129 -25 -26 -35 -30 -87 -30 -45 0 -65 5 -81 20 -21 18 -100 128 -100 138 0
2 26 10 58 16 77 15 154 52 181 87 43 55 8 142 -64 160 -14 3 -56 -5 -102 -20
-132 -43 -312 -75 -430 -76 l-62 0 -5 53 c-13 125 -38 872 -33 977 7 126 37
256 86 369 l30 66 88 22 c215 55 572 99 813 102 63 0 194 -6 290 -14z m-1011
-1887 c85 -127 117 -160 189 -195 51 -25 68 -28 157 -28 91 0 105 3 159 30 79
40 126 96 166 200 l33 85 37 0 38 0 32 -80 c46 -114 86 -162 167 -202 62 -30
75 -33 163 -33 84 0 102 3 152 28 72 35 104 68 189 195 l69 102 56 0 c66 0 67
4 -9 -144 -141 -276 -361 -484 -602 -566 -59 -21 -81 -25 -83 -15 -2 7 6 66
18 132 27 163 26 185 -9 225 -25 28 -36 33 -74 33 -34 0 -52 -6 -71 -24 -14
-14 -26 -30 -26 -38 0 -7 -4 -13 -10 -13 -5 0 -10 6 -10 13 0 8 -12 24 -26 38
-19 18 -37 24 -71 24 -38 0 -49 -5 -74 -33 -35 -40 -36 -62 -9 -225 12 -66 20
-125 18 -132 -2 -10 -24 -6 -83 15 -241 82 -461 290 -602 566 -76 148 -75 144
-9 144 l56 0 69 -102z"/>
<path d="M1749 3877 c-140 -53 -188 -149 -109 -219 37 -34 93 -37 130 -8 70
55 252 -13 452 -168 80 -61 109 -72 155 -60 73 19 98 111 46 168 -42 46 -175
142 -267 193 -155 86 -324 125 -407 94z"/>
<path d="M3195 3876 c-78 -18 -132 -40 -231 -94 -90 -49 -224 -145 -266 -192
-53 -57 -28 -149 45 -168 46 -13 72 -2 162 65 148 111 269 172 357 180 47 5
61 2 86 -16 96 -68 215 43 150 139 -52 78 -181 114 -303 86z"/>
<path d="M2005 3303 c-63 -17 -95 -77 -75 -137 20 -62 46 -71 207 -71 l143 0
31 32 c45 44 45 102 0 146 l-31 32 -128 2 c-70 1 -136 -1 -147 -4z"/>
<path d="M2854 3304 c-12 -3 -34 -18 -49 -34 -41 -42 -39 -101 4 -143 l31 -32
143 0 c121 0 146 3 169 18 37 25 53 77 38 121 -19 60 -48 71 -190 72 -69 1
-135 0 -146 -2z"/>
</g>
</svg>
