<?xml version="1.0" standalone="no"?>
<!DOCTYPE svg PUBLIC "-//W3C//DTD SVG 20010904//EN"
 "http://www.w3.org/TR/2001/REC-SVG-20010904/DTD/svg10.dtd">
<svg version="1.0" xmlns="http://www.w3.org/2000/svg"
 width="1024.000000pt" height="464.000000pt" viewBox="0 0 1024.000000 464.000000"
 preserveAspectRatio="xMidYMid meet">

<g transform="translate(0.000000,464.000000) scale(0.100000,-0.100000)"
fill="#FFFFFF" stroke="none">
<path d="M4880 4633 c-383 -36 -660 -113 -973 -269 -228 -114 -435 -258 -607
-422 l-95 -90 34 -35 34 -36 91 84 c449 415 1002 644 1616 671 658 29 1312
-218 1811 -684 l76 -71 34 35 34 36 -87 83 c-472 451 -1136 711 -1798 703 -74
0 -151 -3 -170 -5z"/>
<path d="M4605 4331 c-99 -20 -188 -40 -198 -44 -25 -9 -22 -40 28 -289 50
-243 66 -282 128 -311 49 -24 120 -21 266 9 69 15 127 27 128 28 1 0 -4 26
-11 56 -15 65 -4 63 -172 30 -66 -13 -129 -20 -138 -17 -19 8 -42 57 -48 102
l-3 30 144 29 143 29 -7 51 c-3 28 -10 55 -14 59 -5 4 -72 -5 -150 -21 l-141
-30 -5 22 c-23 100 -25 120 -15 126 5 3 78 19 160 35 141 27 151 31 146 50 -2
11 -8 37 -11 58 -9 46 2 46 -230 -2z"/>
<path d="M5525 4311 c-46 -11 -79 -37 -102 -78 -22 -39 -133 -448 -133 -488 0
-12 6 -27 13 -32 16 -13 96 -33 101 -24 2 3 16 58 31 121 15 63 31 119 36 124
6 7 139 -22 271 -60 13 -4 20 8 33 52 9 31 15 57 13 59 -2 1 -66 19 -142 39
-77 20 -141 38 -143 40 -5 5 25 97 37 111 18 22 52 19 175 -15 61 -16 117 -30
127 -30 18 0 47 96 32 110 -10 9 -230 67 -284 74 -19 2 -49 1 -65 -3z"/>
<path d="M3817 4023 c-38 -31 -43 -40 -34 -53 7 -8 67 -84 134 -167 125 -157
143 -191 128 -250 -24 -97 -149 -154 -230 -105 -16 10 -86 89 -155 175 -69 86
-129 156 -135 156 -5 0 -30 -17 -54 -38 l-45 -38 134 -164 c143 -177 155 -189
215 -221 55 -30 153 -30 217 -1 64 29 132 94 163 156 33 68 35 162 2 225 -23
44 -275 362 -287 362 -4 0 -28 -17 -53 -37z"/>
<path d="M6132 3738 l-293 -191 60 -34 60 -33 199 130 c110 71 202 130 205
130 5 0 -52 -202 -58 -208 -2 -2 -15 4 -29 13 -25 17 -27 16 -76 -15 -27 -18
-50 -35 -50 -39 0 -3 27 -26 60 -51 33 -24 60 -45 60 -45 0 0 -9 -28 -19 -62
l-19 -61 49 -48 c30 -29 52 -44 57 -39 11 13 192 648 192 674 0 23 -58 71 -86
71 -10 0 -151 -86 -312 -192z"/>
<path d="M4845 3549 c-313 -48 -604 -192 -829 -410 l-101 -97 34 -36 35 -36
80 78 c283 273 622 412 1008 412 371 0 720 -141 994 -402 l91 -87 34 35 34 36
-101 97 c-201 194 -446 326 -733 393 -99 23 -441 34 -546 17z"/>
<path d="M465 2814 c-317 -62 -520 -386 -450 -717 46 -217 208 -388 420 -442
126 -32 316 -11 432 49 79 40 81 43 92 140 6 49 9 91 7 93 -1 2 -29 -12 -61
-32 -105 -63 -159 -79 -265 -80 -85 0 -101 3 -153 28 -80 40 -148 111 -193
203 -33 66 -38 87 -42 163 -7 150 30 263 113 346 59 60 121 87 211 93 135 9
241 -54 281 -167 14 -42 22 -51 41 -51 22 0 23 3 18 38 -3 20 -8 99 -12 174
l-6 138 -42 11 c-115 31 -274 36 -391 13z"/>
<path d="M9673 2745 c-97 -21 -177 -62 -227 -115 -100 -107 -100 -276 -1 -375
57 -58 111 -84 290 -140 216 -68 255 -95 255 -175 0 -100 -133 -162 -298 -139
-128 18 -221 99 -247 217 -5 23 -12 32 -26 32 -20 0 -20 -5 -14 -157 4 -87 8
-163 10 -169 4 -13 108 -40 210 -54 291 -40 549 60 600 233 30 100 11 203 -51
275 -45 53 -141 100 -294 142 -225 63 -258 84 -267 164 -5 43 -3 48 33 85 47
46 124 67 219 58 129 -12 213 -75 255 -189 6 -19 17 -28 31 -28 20 0 21 4 15
46 -3 26 -6 93 -6 150 l0 102 -47 16 c-119 38 -318 47 -440 21z"/>
<path d="M7264 2735 c-173 -37 -306 -159 -366 -333 -29 -87 -31 -247 -4 -336
85 -285 331 -435 604 -371 187 44 324 175 378 360 23 80 23 230 0 310 -82 280
-331 431 -612 370z m175 -151 c61 -18 127 -77 161 -144 56 -109 77 -309 45
-418 -20 -66 -70 -131 -125 -162 -58 -32 -155 -34 -215 -5 -118 58 -198 228
-197 420 0 53 6 110 15 138 48 150 168 215 316 171z"/>
<path d="M1190 2713 c0 -16 6 -23 18 -23 11 0 26 -8 35 -18 15 -17 17 -63 17
-460 0 -387 -2 -442 -16 -456 -8 -9 -24 -16 -35 -16 -12 0 -19 -7 -19 -20 0
-19 7 -20 185 -20 178 0 185 1 185 20 0 13 -7 20 -18 20 -11 0 -26 8 -35 18
-15 16 -17 46 -17 210 l0 192 190 0 190 0 0 -198 c0 -210 -3 -222 -47 -222
-16 0 -23 -6 -23 -20 0 -19 7 -20 191 -20 176 0 190 1 187 18 -2 9 -13 18 -25
20 -48 7 -48 6 -48 477 0 471 0 470 48 477 13 2 22 10 22 21 0 17 -15 18 -188
20 l-187 2 0 -22 c0 -18 6 -23 25 -23 14 0 29 -8 35 -19 6 -11 10 -90 10 -185
l0 -166 -190 0 -190 0 0 168 c0 151 2 171 18 185 10 10 26 17 35 17 11 0 17 8
17 23 l0 22 -185 0 -185 0 0 -22z"/>
<path d="M2730 2713 c0 -14 7 -23 21 -25 52 -7 49 -18 -126 -464 -93 -236
-175 -439 -183 -452 -8 -12 -25 -25 -38 -28 -15 -4 -24 -14 -24 -25 0 -18 10
-19 160 -19 153 0 160 1 160 20 0 13 -7 20 -19 20 -11 0 -27 7 -36 17 -21 20
-17 45 32 175 l36 98 153 0 152 0 30 -92 c45 -137 47 -153 23 -177 -12 -12
-30 -21 -41 -21 -13 0 -20 -7 -20 -20 0 -19 7 -20 200 -20 190 0 200 1 200 19
0 12 -9 21 -24 25 -13 3 -33 21 -44 38 -15 26 -165 478 -303 915 l-10 32 -150
3 c-147 3 -149 3 -149 -19z m203 -383 c19 -80 38 -153 42 -162 7 -17 -2 -18
-104 -18 l-110 0 29 78 c16 42 44 123 62 179 21 65 35 96 39 85 4 -9 22 -82
42 -162z"/>
<path d="M3660 2713 c0 -17 6 -23 23 -23 37 0 47 -19 47 -90 0 -139 -41 -813
-50 -831 -6 -10 -25 -22 -43 -27 -17 -5 -33 -16 -35 -25 -3 -14 15 -16 173
-16 160 0 176 1 173 16 -2 10 -17 20 -35 24 -63 13 -63 12 -62 223 1 105 4
263 8 351 l6 160 150 -392 150 -393 66 0 c54 0 68 3 74 18 4 9 60 176 125 369
65 194 123 360 127 368 6 10 18 -109 33 -311 27 -366 27 -368 -40 -390 -19 -6
-36 -19 -38 -27 -3 -14 20 -16 203 -16 190 0 206 1 203 17 -2 9 -13 18 -25 20
-51 7 -52 15 -83 423 -40 515 -39 529 12 529 12 0 18 8 18 23 l0 22 -164 -3
-164 -3 -70 -202 c-38 -111 -93 -273 -122 -360 -28 -87 -53 -157 -55 -155 -2
2 -62 161 -135 353 -73 193 -135 355 -138 360 -4 6 -72 10 -170 10 -161 0
-162 0 -162 -22z"/>
<path d="M6250 2713 c0 -16 6 -23 19 -23 11 0 27 -10 35 -22 14 -20 16 -80 16
-453 0 -373 -2 -433 -16 -453 -8 -12 -24 -22 -35 -22 -12 0 -19 -7 -19 -20 0
-19 7 -19 185 -19 178 0 185 0 185 19 0 13 -7 20 -19 20 -11 0 -27 7 -35 16
-14 14 -16 69 -16 458 0 416 1 444 18 459 10 10 26 17 35 17 11 0 17 8 17 23
l0 22 -185 0 -185 0 0 -22z"/>
<path d="M8142 2715 c2 -11 12 -21 23 -23 46 -9 45 -1 45 -473 0 -394 -2 -449
-16 -463 -8 -9 -24 -16 -35 -16 -12 0 -19 -7 -19 -19 0 -18 9 -19 150 -19 141
0 150 1 150 19 0 13 -7 19 -24 19 -28 0 -54 22 -61 53 -3 12 -4 178 -3 369 l3
347 259 -405 259 -404 83 0 84 0 0 473 c0 411 2 475 16 495 8 12 24 22 35 22
13 0 19 7 19 23 0 22 -1 22 -150 22 -145 0 -151 -1 -148 -20 2 -14 12 -21 31
-23 56 -7 58 -20 55 -351 l-3 -302 -214 348 -213 348 -165 0 c-158 0 -164 -1
-161 -20z"/>
<path d="M5152 2708 c2 -15 11 -24 25 -26 48 -7 48 -7 48 -467 0 -465 1 -456
-52 -476 -13 -5 -23 -15 -23 -23 0 -13 30 -15 205 -16 193 0 205 1 205 19 0
13 -10 20 -32 25 -71 14 -68 -6 -68 437 l0 398 54 6 c160 20 256 -41 264 -169
10 -156 -68 -239 -225 -240 -40 -1 -74 -5 -75 -11 -3 -18 62 -54 119 -65 152
-32 318 39 386 165 19 34 22 56 22 145 0 99 -2 108 -31 160 -36 62 -98 111
-177 137 -43 13 -106 17 -350 21 l-299 4 4 -24z"/>
<path d="M5385 1206 c-121 -29 -218 -107 -268 -215 -42 -89 -50 -226 -19 -328
51 -168 187 -273 351 -273 73 0 114 12 184 54 l58 35 10 -27 c5 -15 12 -33 14
-40 3 -8 17 -12 37 -10 l33 3 3 154 c3 158 8 181 43 181 12 0 19 7 19 20 0 19
-7 20 -155 20 -148 0 -155 -1 -155 -20 0 -14 7 -20 23 -20 44 0 52 -14 52 -95
0 -74 -1 -78 -34 -107 -32 -28 -38 -30 -102 -26 -87 5 -129 36 -179 133 -34
66 -35 72 -35 179 0 105 2 114 30 166 18 33 47 66 73 85 37 25 54 30 118 33
120 6 191 -32 229 -120 9 -22 22 -38 31 -38 15 0 16 13 12 106 -6 125 -6 125
-109 148 -80 19 -193 19 -264 2z"/>
<path d="M2600 1188 c0 -10 9 -18 23 -20 l22 -3 0 -355 0 -355 -22 -10 c-13
-5 -23 -18 -23 -27 0 -17 20 -18 298 -18 l298 0 13 105 c6 58 14 112 18 120 3
10 -1 15 -14 15 -13 0 -25 -15 -40 -50 -30 -70 -57 -80 -218 -80 l-125 0 0
313 c0 291 1 315 18 330 10 10 26 17 35 17 10 0 17 8 17 18 0 15 -14 17 -150
17 -134 0 -150 -2 -150 -17z"/>
<path d="M4440 1194 c0 -6 11 -16 25 -22 14 -6 25 -16 25 -21 0 -20 -263 -677
-278 -693 -8 -10 -21 -18 -29 -18 -7 0 -13 -7 -13 -15 0 -13 21 -15 125 -15
100 0 125 3 125 14 0 8 -11 17 -25 20 -34 9 -32 49 4 141 l27 70 120 3 121 3
27 -91 c27 -87 28 -92 11 -110 -10 -11 -24 -20 -32 -20 -7 0 -13 -7 -13 -15 0
-13 24 -15 155 -15 123 0 155 3 155 13 0 8 -11 19 -25 25 -27 12 -45 43 -68
117 -9 28 -59 183 -111 345 l-95 295 -116 0 c-78 0 -115 -3 -115 -11z m190
-436 c0 -5 -36 -8 -80 -8 -44 0 -80 3 -80 7 0 4 21 68 47 141 l47 134 33 -133
c18 -74 33 -137 33 -141z"/>
<path d="M6040 1192 c0 -7 11 -17 24 -21 13 -5 26 -17 30 -26 3 -9 6 -137 6
-284 0 -312 5 -337 76 -400 59 -52 114 -66 259 -66 150 0 206 17 263 80 22 23
46 60 53 81 8 26 14 136 16 322 l5 283 24 9 c13 5 24 15 24 22 0 10 -35 13
-150 13 -128 0 -150 -2 -148 -15 2 -8 12 -16 23 -18 43 -8 45 -23 45 -291 0
-144 -5 -272 -10 -293 -6 -20 -24 -48 -41 -62 -26 -22 -40 -26 -99 -26 -86 0
-115 11 -140 52 -19 31 -20 48 -18 323 l3 289 25 6 c14 3 26 12 28 20 2 13
-22 15 -148 15 -115 0 -150 -3 -150 -13z"/>
<path d="M3370 1186 c0 -8 11 -17 25 -20 l25 -6 0 -355 0 -355 -25 -6 c-16 -4
-25 -13 -25 -25 0 -18 13 -19 319 -19 l319 0 7 116 c4 63 5 118 1 121 -12 13
-34 -8 -40 -39 -4 -18 -15 -44 -26 -58 -19 -25 -20 -25 -182 -25 l-163 0 -3
123 -3 123 108 -3 c107 -3 108 -3 121 -30 7 -16 19 -28 25 -28 9 0 12 31 12
115 0 100 -2 115 -16 115 -10 0 -20 -11 -23 -25 -8 -30 -41 -37 -146 -33 l-75
3 0 115 0 115 144 3 c160 3 184 -4 203 -59 5 -16 16 -29 24 -29 15 0 19 73 8
143 l-7 37 -303 0 c-253 0 -304 -2 -304 -14z"/>
<path d="M7020 1185 c0 -8 8 -15 19 -15 40 0 41 -14 39 -371 l-3 -343 -25 -13
c-14 -7 -25 -18 -25 -25 0 -19 634 -24 639 -6 3 7 7 61 9 121 5 100 4 107 -14
107 -14 0 -22 -12 -30 -45 -20 -78 -37 -85 -215 -85 l-154 0 0 130 0 130 95 0
c82 0 98 -3 115 -20 11 -11 20 -24 20 -30 0 -5 7 -10 15 -10 12 0 15 19 15
115 0 87 -3 115 -13 115 -7 0 -18 -13 -24 -30 l-11 -30 -106 0 -106 0 0 115 0
115 143 0 c160 0 186 -8 201 -58 6 -22 15 -32 29 -32 15 0 18 5 13 23 -3 12
-6 52 -6 90 l0 67 -310 0 c-269 0 -310 -2 -310 -15z"/>
<path d="M7825 360 c-90 -27 -131 -138 -80 -216 57 -88 203 -84 250 7 61 116
-46 246 -170 209z m114 -46 c78 -66 47 -195 -51 -210 -96 -16 -169 88 -123
176 32 62 121 79 174 34z"/>
<path d="M7818 304 c-5 -4 -8 -43 -8 -86 0 -63 3 -78 15 -78 10 0 15 11 15 35
0 23 5 35 14 35 8 0 23 -16 35 -35 11 -19 25 -35 31 -35 14 0 13 12 -6 38 -15
21 -15 25 0 41 17 19 22 66 7 75 -17 11 -96 18 -103 10z m89 -40 c7 -19 -13
-34 -44 -34 -18 0 -23 6 -23 25 0 21 5 25 30 25 19 0 33 -6 37 -16z"/>
</g>
</svg>
